<?xml version="1.0"?><svg width="611.78571" height="593.40845" xmlns="http://www.w3.org/2000/svg">
 <title>Half Sun</title>
 <metadata id="metadata20">image/svg+xmlkeep out sunlight protection uv ultraviolet ultra-violet burns beach hut building structure rays summer heat sign symbol</metadata>

 <g>
  <title>Layer 1</title>
  <g id="layer1">
   <g id="g32373">
    <path fill="none" fill-rule="evenodd" stroke="#1e88e5" stroke-width="20" stroke-linecap="round" stroke-miterlimit="4" id="path2270" d="m308.232971,9.999695c0,81.479645 0,81.479645 0,81.479645"/>
    <path fill="#1e88e5" stroke-width="0.043" stroke-miterlimit="4" id="path5180" d="m356.789825,177.00708a48.575462,50.001163 0 1 1 -97.150909,0a48.575462,50.001163 0 1 1 97.150909,0z"/>
    <path fill="none" fill-rule="evenodd" stroke="#1e88e5" stroke-width="19.503416" stroke-linecap="round" stroke-linejoin="round" stroke-miterlimit="4" id="path10042" d="m356.627441,108.594025c49.602325,-72.459442 49.602325,-72.459442 49.602325,-72.459442"/>
    <path fill="none" fill-rule="evenodd" stroke="#1e88e5" stroke-width="20.208597" stroke-linecap="round" stroke-linejoin="round" stroke-miterlimit="4" id="path12953" d="m388.675751,149.045715c143.71994,-52.291382 143.71994,-52.291382 143.71994,-52.291382"/>
    <path fill="none" fill-rule="evenodd" stroke="#1e88e5" stroke-width="20" stroke-linecap="round" stroke-linejoin="round" stroke-miterlimit="4" id="path19748" d="m308.214294,263.43576c0,126.785706 0,126.785706 0,126.785706"/>
    <path fill="none" fill-rule="evenodd" stroke="#1e88e5" stroke-width="19.445738" stroke-linecap="round" stroke-linejoin="round" stroke-miterlimit="4" id="path20719" d="m364.365753,244.587189c216.625641,256.268524 216.625641,256.268524 216.625641,256.268524"/>
    <path fill="none" fill-rule="evenodd" stroke="#1e88e5" stroke-width="19.089554" stroke-linecap="round" stroke-linejoin="round" stroke-miterlimit="4" id="path21690" d="m390.973358,200.837646c211.267548,56.267609 211.267548,56.267609 211.267548,56.267609"/>
   </g>
  </g>
 </g>
</svg>